<svg xmlns="http://www.w3.org/2000/svg" width="144" height="144" viewBox="0 0 144 144"><defs><style>.a{fill:#ffa726;}</style></defs><path class="a" d="M43.974,138.342A72.237,72.237,0,1,1,72,144,71.758,71.758,0,0,1,43.974,138.342ZM2,72A70,70,0,1,0,72,2,70.079,70.079,0,0,0,2,72Zm43.142,63.578A69.225,69.225,0,1,1,72,141,68.774,68.774,0,0,1,45.142,135.578ZM4.917,72A67.083,67.083,0,1,0,72,4.917,67.159,67.159,0,0,0,4.917,72ZM34.3,107.343a6.069,6.069,0,0,1-1.376-4.528,2.013,2.013,0,0,1,2.012-1.988h0a2.013,2.013,0,0,1,2.011,2.011v.534c.118.956.9,2.537,4.765,2.537,2.079,0,3.561-.464,4.285-1.339a2.15,2.15,0,0,0,.486-1.669l-.006-.062c0-1.085-2.072-1.788-4.471-2.6-4.04-1.372-9.067-3.078-9.081-7.964a6.162,6.162,0,0,1,1.432-4.545c1.483-1.7,3.958-2.569,7.356-2.569,6.809,0,8.393,3.475,8.731,5.556a1.974,1.974,0,0,1,.057.453,5.382,5.382,0,0,1,0,1.1,2.012,2.012,0,0,1-4.023-.017v-.026c0-.308-.178-3.045-4.765-3.045-2.111,0-3.6.465-4.317,1.346a2.1,2.1,0,0,0-.455,1.657l.007.067c0,1.094,2.092,1.818,4.514,2.656,4.02,1.391,9.022,3.123,9.038,7.909a6.07,6.07,0,0,1-1.376,4.528c-1.475,1.717-3.968,2.588-7.411,2.588S35.779,109.061,34.3,107.343Zm55.476,1.742a2.042,2.042,0,0,1-2.039-2.039V88.107a2.042,2.042,0,0,1,2.039-2.039h13.774a2.039,2.039,0,0,1,0,4.079H91.82v5.39h6.569a2.039,2.039,0,0,1,0,4.079H91.82v5.391h11.735a2.039,2.039,0,0,1,0,4.079Zm-16.16,0a2.042,2.042,0,0,1-2.039-2.039v-16.9H65.012a2.039,2.039,0,1,1,0-4.079H82.23a2.039,2.039,0,0,1,0,4.079H75.661v16.9a2.042,2.042,0,0,1-2.039,2.039Zm-18.2-2.039V88.107a2.039,2.039,0,0,1,4.079,0v18.939a2.039,2.039,0,0,1-4.079,0Zm43.736-28.99a4.478,4.478,0,1,1,.009,0Zm-2.979-4.474a2.979,2.979,0,1,0,2.98-2.98A2.983,2.983,0,0,0,96.179,73.582ZM78.662,78.056a4.478,4.478,0,1,1,.009,0Zm-2.979-4.474a2.979,2.979,0,1,0,2.979-2.98A2.983,2.983,0,0,0,75.683,73.582ZM44.678,78.056a4.478,4.478,0,1,1,.009,0ZM41.7,73.582a2.979,2.979,0,1,0,2.979-2.98A2.983,2.983,0,0,0,41.7,73.582Zm13.867,4.1L52.534,74.65h-.208V77.1a.762.762,0,0,1-1.525,0V70.028a.763.763,0,0,1,.762-.762h2.395a3,3,0,0,1,2.354.848,2.276,2.276,0,0,1,.468.859,3.3,3.3,0,0,1,.128.947,3.382,3.382,0,0,1-.128.957,2.38,2.38,0,0,1-.465.884,2.594,2.594,0,0,1-1.671.843l2,2a.762.762,0,0,1-1.078,1.078Zm-3.24-4.556H54.19a1.153,1.153,0,0,0,1.194-1.187A1.1,1.1,0,0,0,54.19,70.79H52.326Zm39.167,4.008v-7.1a.765.765,0,0,1,1.53,0v7.1a.765.765,0,0,1-1.53,0ZM85.55,77.9a.766.766,0,0,1-.765-.765v-7.1a.765.765,0,0,1,1.53,0v6.337h3.109a.765.765,0,0,1,0,1.53Zm-18.441-.765v-7.1a.766.766,0,0,1,.765-.765H73.04a.765.765,0,0,1,0,1.53h-4.4v2.021H71.1a.765.765,0,0,1,0,1.529H68.639v2.786a.765.765,0,0,1-1.53,0Zm-6.06,0V70.8H58.586a.765.765,0,1,1,0-1.53h6.457a.765.765,0,0,1,0,1.53H62.579v6.337a.765.765,0,1,1-1.529,0Zm-28.129,0v-7.1a.767.767,0,0,1,.765-.765h2.4a3.012,3.012,0,0,1,2.362.851,2.3,2.3,0,0,1,.469.862,3.3,3.3,0,0,1,.129.95,3.44,3.44,0,0,1-.129.96,2.379,2.379,0,0,1-.467.887,2.944,2.944,0,0,1-2.364.893h-1.64v2.463a.765.765,0,0,1-1.53,0Zm1.53-3.992h1.871a1.158,1.158,0,0,0,1.2-1.193,1.114,1.114,0,0,0-1.2-1.152H34.451Zm56.466-9.448a2,2,0,0,1-2-2v-17a2,2,0,0,1,2-2h17a2,2,0,0,1,2,2v17a2,2,0,0,1-2,2Zm-32.44,0a2,2,0,0,1-2-2v-4a2,2,0,0,1,2-2H84.7a2,2,0,0,1,2,2v4a2,2,0,0,1-2,2ZM35,63.692a2,2,0,0,1-2-2v-17a2,2,0,0,1,2-2H52a2,2,0,0,1,2,2v17a2,2,0,0,1-2,2ZM69.478,51a2,2,0,0,1-2-2V45a2,2,0,0,1,2-2h4a2,2,0,0,1,2,2v4a2,2,0,0,1-2,2Zm-11,0a2,2,0,0,1-2-2V45a2,2,0,0,1,2-2h4a2,2,0,0,1,2,2v4a2,2,0,0,1-2,2Zm22.22-.308a2,2,0,0,1-2-2v-4a2,2,0,0,1,2-2h4a2,2,0,0,1,2,2v4a2,2,0,0,1-2,2ZM35,39a2,2,0,0,1-2-2V33a2,2,0,0,1,2-2h72.917a2,2,0,0,1,2,2v4a2,2,0,0,1-2,2Z"/></svg>